{
  "accessors": [
    {
      "bufferView": 2,
      "componentType": 5126,
      "count": 106,
      "max": [
        0.052725084125995636,
        -0.4873494505882263,
        0.8384893536567688
      ],
      "min": [
        -0.052725084125995636,
        -0.5803759098052979,
        0.6123976111412048
      ],
      "type": "VEC3"
    },
    {
      "bufferView": 2,
      "byteOffset": 1272,
      "componentType": 5126,
      "count": 106,
      "max": [
        1.0,
        0.9999474287033081,
        0.9999290108680725
      ],
      "min": [
        -1.0,
        -1.0,
        -1.0
      ],
      "type": "VEC3"
    },
    {
      "bufferView": 3,
      "componentType": 5126,
      "count": 106,
      "max": [
        1.0,
        0.9999290108680725,
        0.9999291896820068,
        1.0
      ],
      "min": [
        -7.149100866854496e-08,
        -0.9999624490737915,
        -0.9999474287033081,
        1.0
      ],
      "type": "VEC4"
    },
    {
      "bufferView": 1,
      "componentType": 5126,
      "count": 106,
      "max": [
        0.7255695462226868,
        0.977421760559082
      ],
      "min": [
        0.03118852525949478,
        0.5902449488639832
      ],
      "type": "VEC2"
    },
    {
      "bufferView": 0,
      "componentType": 5125,
      "count": 222,
      "type": "SCALAR"
    },
    {
      "bufferView": 2,
      "byteOffset": 2544,
      "componentType": 5126,
      "count": 80,
      "max": [
        0.7258716225624084,
        0.5260373950004578,
        0.8787375688552856
      ],
      "min": [
        -0.7258716225624084,
        0.4586530327796936,
        0.6929444074630737
      ],
      "type": "VEC3"
    },
    {
      "bufferView": 2,
      "byteOffset": 3504,
      "componentType": 5126,
      "count": 80,
      "max": [
        1.0,
        1.0,
        1.0
      ],
      "min": [
        -1.0,
        0.0,
        -1.0
      ],
      "type": "VEC3"
    },
    {
      "bufferView": 3,
      "byteOffset": 1696,
      "componentType": 5126,
      "count": 80,
      "max": [
        9.785760994418524e-06,
        1.0,
        1.0,
        1.0
      ],
      "min": [
        -2.4580654098826926e-06,
        -1.0,
        -1.0,
        1.0
      ],
      "type": "VEC4"
    },
    {
      "bufferView": 1,
      "byteOffset": 848,
      "componentType": 5126,
      "count": 80,
      "max": [
        0.8796863555908203,
        0.9775301814079285
      ],
      "min": [
        0.005042013246566057,
        0.3764088749885559
      ],
      "type": "VEC2"
    },
    {
      "bufferView": 0,
      "byteOffset": 888,
      "componentType": 5125,
      "count": 168,
      "type": "SCALAR"
    },
    {
      "bufferView": 2,
      "byteOffset": 4464,
      "componentType": 5126,
      "count": 170,
      "max": [
        -0.9905390739440918,
        0.22993262112140656,
        0.7626805305480957
      ],
      "min": [
        -1.0229780673980713,
        -0.22993262112140656,
        0.4694001078605652
      ],
      "type": "VEC3"
    },
    {
      "bufferView": 2,
      "byteOffset": 6504,
      "componentType": 5126,
      "count": 170,
      "max": [
        0.0,
        1.0,
        1.0
      ],
      "min": [
        -1.0,
        -1.0,
        -1.0
      ],
      "type": "VEC3"
    },
    {
      "bufferView": 3,
      "byteOffset": 2976,
      "componentType": 5126,
      "count": 170,
      "max": [
        1.0,
        1.0,
        1.0,
        1.0
      ],
      "min": [
        -1.0,
        -0.011920018121600151,
        -0.34184640645980835,
        1.0
      ],
      "type": "VEC4"
    },
    {
      "bufferView": 1,
      "byteOffset": 1488,
      "componentType": 5126,
      "count": 170,
      "max": [
        0.9949579834938049,
        0.9858935475349426
      ],
      "min": [
        0.25219202041625977,
        0.005042013246566057
      ],
      "type": "VEC2"
    },
    {
      "bufferView": 0,
      "byteOffset": 1560,
      "componentType": 5125,
      "count": 402,
      "type": "SCALAR"
    },
    {
      "bufferView": 2,
      "byteOffset": 8544,
      "componentType": 5126,
      "count": 192,
      "max": [
        1.0200458765029907,
        0.5117881894111633,
        0.8999999761581421
      ],
      "min": [
        -1.0200458765029907,
        -0.5117881894111633,
        0.0
      ],
      "type": "VEC3"
    },
    {
      "bufferView": 2,
      "byteOffset": 10848,
      "componentType": 5126,
      "count": 192,
      "max": [
        1.0,
        1.0,
        1.0
      ],
      "min": [
        -1.0,
        -1.0,
        -1.0
      ],
      "type": "VEC3"
    },
    {
      "bufferView": 3,
      "byteOffset": 5696,
      "componentType": 5126,
      "count": 192,
      "max": [
        1.0,
        1.0,
        1.0,
        1.0
      ],
      "min": [
        -1.0,
        -1.0,
        -1.0,
        1.0
      ],
      "type": "VEC4"
    },
    {
      "bufferView": 1,
      "byteOffset": 2848,
      "componentType": 5126,
      "count": 192,
      "max": [
        0.9856894016265869,
        0.9509193301200867
      ],
      "min": [
        0.005042013246566057,
        0.005042013246566057
      ],
      "type": "VEC2"
    },
    {
      "bufferView": 0,
      "byteOffset": 3168,
      "componentType": 5125,
      "count": 372,
      "type": "SCALAR"
    },
    {
      "bufferView": 2,
      "byteOffset": 13152,
      "componentType": 5126,
      "count": 170,
      "max": [
        -0.9670444130897522,
        0.22993260622024536,
        0.7626805305480957
      ],
      "min": [
        -0.9994834065437317,
        -0.22993263602256775,
        0.4694001078605652
      ],
      "type": "VEC3"
    },
    {
      "bufferView": 2,
      "byteOffset": 15192,
      "componentType": 5126,
      "count": 170,
      "max": [
        0.0,
        1.0,
        1.0
      ],
      "min": [
        -1.0,
        -1.0,
        -1.0
      ],
      "type": "VEC3"
    },
    {
      "bufferView": 3,
      "byteOffset": 8768,
      "componentType": 5126,
      "count": 170,
      "max": [
        1.0,
        1.0,
        1.0,
        1.0
      ],
      "min": [
        -1.0,
        -0.011920022778213024,
        -0.3418450355529785,
        1.0
      ],
      "type": "VEC4"
    },
    {
      "bufferView": 1,
      "byteOffset": 4384,
      "componentType": 5126,
      "count": 170,
      "max": [
        0.9949579834938049,
        0.9858936071395874
      ],
      "min": [
        0.23676486313343048,
        0.10080736130475998
      ],
      "type": "VEC2"
    },
    {
      "bufferView": 0,
      "byteOffset": 4656,
      "componentType": 5125,
      "count": 402,
      "type": "SCALAR"
    }
  ],
  "asset": {
    "extras": {
      "author": "Helsingr (https://sketchfab.com/helsingr)",
      "license": "CC-BY-4.0 (http://creativecommons.org/licenses/by/4.0/)",
      "source": "https://sketchfab.com/3d-models/wooden-box-540b22a07d2a4f3fadee25677c40d9df",
      "title": "Wooden Box"
    },
    "generator": "Sketchfab-12.68.0",
    "version": "2.0"
  },
  "bufferViews": [
    {
      "buffer": 0,
      "byteLength": 6264,
      "name": "floatBufferViews",
      "target": 34963
    },
    {
      "buffer": 0,
      "byteLength": 5744,
      "byteOffset": 6264,
      "byteStride": 8,
      "name": "floatBufferViews",
      "target": 34962
    },
    {
      "buffer": 0,
      "byteLength": 17232,
      "byteOffset": 12008,
      "byteStride": 12,
      "name": "floatBufferViews",
      "target": 34962
    },
    {
      "buffer": 0,
      "byteLength": 11488,
      "byteOffset": 29240,
      "byteStride": 16,
      "name": "floatBufferViews",
      "target": 34962
    }
  ],
  "buffers": [
    {
      "byteLength": 40728,
      "uri": "scene.bin"
    }
  ],
  "images": [
    {
      "uri": "textures/Material_baseColor.png"
    },
    {
      "uri": "textures/Material_metallicRoughness.png"
    },
    {
      "uri": "textures/Material_normal.png"
    }
  ],
  "materials": [
    {
      "doubleSided": true,
      "name": "Material",
      "normalTexture": {
        "index": 2
      },
      "pbrMetallicRoughness": {
        "baseColorTexture": {
          "index": 0
        },
        "metallicRoughnessTexture": {
          "index": 1
        }
      }
    }
  ],
  "meshes": [
    {
      "name": "Clasp_Material_0",
      "primitives": [
        {
          "attributes": {
            "NORMAL": 1,
            "POSITION": 0,
            "TANGENT": 2,
            "TEXCOORD_0": 3
          },
          "indices": 4,
          "material": 0,
          "mode": 4
        }
      ]
    },
    {
      "name": "Hinges_Material_0",
      "primitives": [
        {
          "attributes": {
            "NORMAL": 6,
            "POSITION": 5,
            "TANGENT": 7,
            "TEXCOORD_0": 8
          },
          "indices": 9,
          "material": 0,
          "mode": 4
        }
      ]
    },
    {
      "name": "Handel2_Material_0",
      "primitives": [
        {
          "attributes": {
            "NORMAL": 11,
            "POSITION": 10,
            "TANGENT": 12,
            "TEXCOORD_0": 13
          },
          "indices": 14,
          "material": 0,
          "mode": 4
        }
      ]
    },
    {
      "name": "Box_Material_0",
      "primitives": [
        {
          "attributes": {
            "NORMAL": 16,
            "POSITION": 15,
            "TANGENT": 17,
            "TEXCOORD_0": 18
          },
          "indices": 19,
          "material": 0,
          "mode": 4
        }
      ]
    },
    {
      "name": "Handel2.001_Material_0",
      "primitives": [
        {
          "attributes": {
            "NORMAL": 21,
            "POSITION": 20,
            "TANGENT": 22,
            "TEXCOORD_0": 23
          },
          "indices": 24,
          "material": 0,
          "mode": 4
        }
      ]
    }
  ],
  "nodes": [
    {
      "children": [
        1
      ],
      "matrix": [
        1.0,
        0.0,
        0.0,
        0.0,
        0.0,
        2.220446049250313e-16,
        -1.0,
        0.0,
        0.0,
        1.0,
        2.220446049250313e-16,
        0.0,
        0.0,
        0.0,
        0.0,
        1.0
      ],
      "name": "Sketchfab_model"
    },
    {
      "children": [
        2
      ],
      "matrix": [
        1.0,
        0.0,
        0.0,
        0.0,
        0.0,
        0.0,
        1.0,
        0.0,
        0.0,
        -1.0,
        0.0,
        0.0,
        0.0,
        0.0,
        0.0,
        1.0
      ],
      "name": "WoodenBox.fbx"
    },
    {
      "children": [
        3,
        5,
        7,
        9,
        11
      ],
      "name": "RootNode"
    },
    {
      "children": [
        4
      ],
      "matrix": [
        100.0,
        0.0,
        0.0,
        0.0,
        0.0,
        -1.629206793918314e-05,
        -99.99999999999868,
        0.0,
        0.0,
        99.99999999999868,
        -1.629206793918314e-05,
        0.0,
        0.0,
        0.0,
        0.0,
        1.0
      ],
      "name": "Clasp"
    },
    {
      "mesh": 0,
      "name": "Clasp_Material_0"
    },
    {
      "children": [
        6
      ],
      "matrix": [
        100.0,
        0.0,
        0.0,
        0.0,
        0.0,
        -1.629206793918314e-05,
        -99.99999999999868,
        0.0,
        0.0,
        99.99999999999868,
        -1.629206793918314e-05,
        0.0,
        0.0,
        0.0,
        0.0,
        1.0
      ],
      "name": "Hinges"
    },
    {
      "mesh": 1,
      "name": "Hinges_Material_0"
    },
    {
      "children": [
        8
      ],
      "matrix": [
        -99.99999999999241,
        1.2246465878873718e-14,
        3.8941437775530106e-05,
        0.0,
        3.894143777553e-05,
        7.549789982075339e-06,
        99.99999999999213,
        0.0,
        -2.9277502948264183e-12,
        99.9999999999997,
        -7.549789970973109e-06,
        0.0,
        0.0,
        0.0,
        0.0,
        1.0
      ],
      "name": "Handel2"
    },
    {
      "mesh": 2,
      "name": "Handel2_Material_0"
    },
    {
      "children": [
        10
      ],
      "matrix": [
        100.0,
        0.0,
        0.0,
        0.0,
        0.0,
        -1.629206793918314e-05,
        -99.99999999999868,
        0.0,
        0.0,
        99.99999999999868,
        -1.629206793918314e-05,
        0.0,
        1.1506048440933228,
        -0.004844362381845713,
        0.3355138897895813,
        1.0
      ],
      "name": "Box"
    },
    {
      "mesh": 3,
      "name": "Box_Material_0"
    },
    {
      "children": [
        12
      ],
      "matrix": [
        99.99999999997875,
        0.0,
        -6.516827966151588e-05,
        0.0,
        -6.516827966151501e-05,
        -1.629206793918314e-05,
        -99.99999999997745,
        0.0,
        -1.0617260404688505e-11,
        99.99999999999868,
        -1.629206793918314e-05,
        0.0,
        0.0,
        0.0,
        0.0,
        1.0
      ],
      "name": "Handel2.001"
    },
    {
      "mesh": 4,
      "name": "Handel2.001_Material_0"
    }
  ],
  "samplers": [
    {
      "magFilter": 9729,
      "minFilter": 9987,
      "wrapS": 10497,
      "wrapT": 10497
    }
  ],
  "scene": 0,
  "scenes": [
    {
      "name": "Sketchfab_Scene",
      "nodes": [
        0
      ]
    }
  ],
  "textures": [
    {
      "sampler": 0,
      "source": 0
    },
    {
      "sampler": 0,
      "source": 1
    },
    {
      "sampler": 0,
      "source": 2
    }
  ]
}
