{
  "asset": {
    "version": "2.0",
    "generator": "babylon.js glTF exporter for 3dsmax 2023 v20220428.2"
  },
  "scene": 0,
  "scenes": [
    {
      "nodes": [
        0
      ]
    }
  ],
  "nodes": [
    {
      "children": [
        1,
        2,
        3,
        4,
        5
      ],
      "translation": [
        0.0,
        0.0,
        -7.62939453E-05
      ],
      "name": "源"
    },
    {
      "mesh": 0,
      "translation": [
        -2.28881836E-05,
        9.355331,
        7.670288E-05
      ],
      "name": "Box007"
    },
    {
      "mesh": 1,
      "translation": [
        -2.28881836E-05,
        14.44194,
        7.670288E-05
      ],
      "name": "SND_zhixiang2026"
    },
    {
      "mesh": 2,
      "translation": [
        -2.28881836E-05,
        98.4144,
        7.670288E-05
      ],
      "rotation": [
        0.0,
        0.7071068,
        0.0,
        0.7071067
      ],
      "name": "对象011"
    },
    {
      "mesh": 3,
      "translation": [
        -65.07875,
        33.2707367,
        -103.719727
      ],
      "scale": [
        0.7009689,
        7.045825,
        0.7009689
      ],
      "name": "Cylinder009"
    },
    {
      "mesh": 4,
      "translation": [
        -65.07875,
        8.066513,
        -103.719727
      ],
      "scale": [
        0.210057259,
        8.418954,
        0.210057259
      ],
      "name": "Cylinder010"
    }
  ],
  "meshes": [
    {
      "primitives": [
        {
          "attributes": {
            "POSITION": 1,
            "NORMAL": 2,
            "TEXCOORD_0": 3
          },
          "indices": 0,
          "material": 0
        },
        {
          "attributes": {
            "POSITION": 5,
            "NORMAL": 6,
            "TEXCOORD_0": 7
          },
          "indices": 4,
          "material": 1
        }
      ],
      "name": "Box007"
    },
    {
      "primitives": [
        {
          "attributes": {
            "POSITION": 9,
            "NORMAL": 10,
            "TEXCOORD_0": 11,
            "TEXCOORD_1": 12
          },
          "indices": 8,
          "material": 2
        }
      ],
      "name": "SND_zhixiang2026"
    },
    {
      "primitives": [
        {
          "attributes": {
            "POSITION": 14,
            "NORMAL": 15,
            "TEXCOORD_0": 16,
            "TEXCOORD_1": 17
          },
          "indices": 13,
          "material": 2
        }
      ],
      "name": "对象011"
    },
    {
      "primitives": [
        {
          "attributes": {
            "POSITION": 19,
            "NORMAL": 20,
            "TEXCOORD_0": 21
          },
          "indices": 18,
          "material": 0
        }
      ],
      "name": "Cylinder009"
    },
    {
      "primitives": [
        {
          "attributes": {
            "POSITION": 23,
            "NORMAL": 24,
            "TEXCOORD_0": 25
          },
          "indices": 22,
          "material": 0
        }
      ],
      "name": "Cylinder010"
    }
  ],
  "accessors": [
    {
      "bufferView": 0,
      "componentType": 5123,
      "count": 420,
      "type": "SCALAR",
      "name": "accessorIndices"
    },
    {
      "bufferView": 1,
      "componentType": 5126,
      "count": 174,
      "max": [
        70.89859,
        5.7537303,
        109.999924
      ],
      "min": [
        -70.8985443,
        -9.334138,
        -110.000076
      ],
      "type": "VEC3",
      "name": "accessorPositions"
    },
    {
      "bufferView": 1,
      "byteOffset": 2088,
      "componentType": 5126,
      "count": 174,
      "type": "VEC3",
      "name": "accessorNormals"
    },
    {
      "bufferView": 2,
      "componentType": 5126,
      "count": 174,
      "type": "VEC2",
      "name": "accessorUVs"
    },
    {
      "bufferView": 0,
      "byteOffset": 840,
      "componentType": 5123,
      "count": 6,
      "type": "SCALAR",
      "name": "accessorIndices"
    },
    {
      "bufferView": 1,
      "byteOffset": 4176,
      "componentType": 5126,
      "count": 6,
      "max": [
        67.38918,
        5.7537303,
        102.710579
      ],
      "min": [
        -67.38914,
        5.7537303,
        -106.490669
      ],
      "type": "VEC3",
      "name": "accessorPositions"
    },
    {
      "bufferView": 1,
      "byteOffset": 4248,
      "componentType": 5126,
      "count": 6,
      "type": "VEC3",
      "name": "accessorNormals"
    },
    {
      "bufferView": 2,
      "byteOffset": 1392,
      "componentType": 5126,
      "count": 6,
      "type": "VEC2",
      "name": "accessorUVs"
    },
    {
      "bufferView": 0,
      "byteOffset": 852,
      "componentType": 5123,
      "count": 792,
      "type": "SCALAR",
      "name": "accessorIndices"
    },
    {
      "bufferView": 1,
      "byteOffset": 4320,
      "componentType": 5126,
      "count": 528,
      "max": [
        45.072998,
        60.5744133,
        63.13997
      ],
      "min": [
        -45.0734863,
        -1.82986259E-05,
        -63.13997
      ],
      "type": "VEC3",
      "name": "accessorPositions"
    },
    {
      "bufferView": 1,
      "byteOffset": 10656,
      "componentType": 5126,
      "count": 528,
      "type": "VEC3",
      "name": "accessorNormals"
    },
    {
      "bufferView": 2,
      "byteOffset": 1440,
      "componentType": 5126,
      "count": 528,
      "type": "VEC2",
      "name": "accessorUVs"
    },
    {
      "bufferView": 2,
      "byteOffset": 5664,
      "componentType": 5126,
      "count": 528,
      "type": "VEC2",
      "name": "accessorUV2s"
    },
    {
      "bufferView": 0,
      "byteOffset": 2436,
      "componentType": 5123,
      "count": 228,
      "type": "SCALAR",
      "name": "accessorIndices"
    },
    {
      "bufferView": 1,
      "byteOffset": 16992,
      "componentType": 5126,
      "count": 144,
      "max": [
        38.83496,
        23.11052,
        46.8020744
      ],
      "min": [
        -37.7583,
        -22.80051,
        -45.51531
      ],
      "type": "VEC3",
      "name": "accessorPositions"
    },
    {
      "bufferView": 1,
      "byteOffset": 18720,
      "componentType": 5126,
      "count": 144,
      "type": "VEC3",
      "name": "accessorNormals"
    },
    {
      "bufferView": 2,
      "byteOffset": 9888,
      "componentType": 5126,
      "count": 144,
      "type": "VEC2",
      "name": "accessorUVs"
    },
    {
      "bufferView": 2,
      "byteOffset": 11040,
      "componentType": 5126,
      "count": 144,
      "type": "VEC2",
      "name": "accessorUV2s"
    },
    {
      "bufferView": 0,
      "byteOffset": 2892,
      "componentType": 5123,
      "count": 84,
      "type": "SCALAR",
      "name": "accessorIndices"
    },
    {
      "bufferView": 1,
      "byteOffset": 20448,
      "componentType": 5126,
      "count": 34,
      "max": [
        4.645746,
        3.18580818,
        4.645746
      ],
      "min": [
        -4.645746,
        0.0,
        -4.645746
      ],
      "type": "VEC3",
      "name": "accessorPositions"
    },
    {
      "bufferView": 1,
      "byteOffset": 20856,
      "componentType": 5126,
      "count": 34,
      "type": "VEC3",
      "name": "accessorNormals"
    },
    {
      "bufferView": 2,
      "byteOffset": 12192,
      "componentType": 5126,
      "count": 34,
      "type": "VEC2",
      "name": "accessorUVs"
    },
    {
      "bufferView": 0,
      "byteOffset": 3060,
      "componentType": 5123,
      "count": 84,
      "type": "SCALAR",
      "name": "accessorIndices"
    },
    {
      "bufferView": 1,
      "byteOffset": 21264,
      "componentType": 5126,
      "count": 34,
      "max": [
        4.645746,
        3.18580818,
        4.645746
      ],
      "min": [
        -4.645746,
        0.0,
        -4.645746
      ],
      "type": "VEC3",
      "name": "accessorPositions"
    },
    {
      "bufferView": 1,
      "byteOffset": 21672,
      "componentType": 5126,
      "count": 34,
      "type": "VEC3",
      "name": "accessorNormals"
    },
    {
      "bufferView": 2,
      "byteOffset": 12464,
      "componentType": 5126,
      "count": 34,
      "type": "VEC2",
      "name": "accessorUVs"
    }
  ],
  "bufferViews": [
    {
      "buffer": 0,
      "byteLength": 3228,
      "name": "bufferViewScalar"
    },
    {
      "buffer": 0,
      "byteOffset": 3228,
      "byteLength": 22080,
      "byteStride": 12,
      "name": "bufferViewFloatVec3"
    },
    {
      "buffer": 0,
      "byteOffset": 25308,
      "byteLength": 12736,
      "byteStride": 8,
      "name": "bufferViewFloatVec2"
    }
  ],
  "buffers": [
    {
      "uri": "yuan.bin",
      "byteLength": 38044
    }
  ],
  "materials": [
    {
      "pbrMetallicRoughness": {
        "baseColorFactor": [
          0.4509804,
          0.5647059,
          0.6039216,
          1.0
        ],
        "roughnessFactor": 0.5
      },
      "name": "Material #4"
    },
    {
      "pbrMetallicRoughness": {
        "baseColorFactor": [
          0.0470588244,
          0.196078435,
          0.843137264,
          1.0
        ],
        "metallicFactor": 0.0,
        "roughnessFactor": 0.5
      },
      "name": "Material #7"
    },
    {
      "pbrMetallicRoughness": {
        "baseColorTexture": {
          "index": 0
        },
        "metallicFactor": 0.0,
        "roughnessFactor": 0.450053632
      },
      "name": "SND_zhixiang"
    }
  ],
  "textures": [
    {
      "sampler": 0,
      "source": 0,
      "name": "SND_zhixiang_Base_color.jpg"
    }
  ],
  "images": [
    {
      "uri": "SND_zhixiang_Base_color.jpg"
    }
  ],
  "samplers": [
    {
      "magFilter": 9729,
      "minFilter": 9987
    }
  ]
}